<svg width="42" height="43" viewBox="0 0 42 43" fill="none" xmlns="http://www.w3.org/2000/svg">
<path d="M20.5315 18.9522C24.8747 18.9522 28.4283 15.3986 28.4283 11.0554C28.4283 6.71223 24.8747 3.1587 20.5315 3.1587C16.1883 3.1587 12.6348 6.71223 12.6348 11.0554C12.6348 15.3986 16.1883 18.9522 20.5315 18.9522ZM31.587 33.1663V28.4283C31.587 27.5596 32.2977 26.8489 33.1663 26.8489C34.0349 26.8489 34.7457 27.5596 34.7457 28.4283V33.1663H39.4837C40.3523 33.1663 41.063 33.877 41.063 34.7457C41.063 35.6143 40.3523 36.325 39.4837 36.325H34.7457V41.063C34.7457 41.9317 34.0349 42.6424 33.1663 42.6424C32.2977 42.6424 31.587 41.9317 31.587 41.063V36.325H26.8489C25.9803 36.325 25.2696 35.6143 25.2696 34.7457C25.2696 33.877 25.9803 33.1663 26.8489 33.1663H31.587ZM30.7973 21.0843C31.2711 21.4002 31.587 21.874 31.587 22.4267C31.587 23.2954 30.8763 24.0061 30.0076 24.0061C29.6917 24.0061 29.4548 23.9271 29.2179 23.7692C27.0858 22.6636 24.7168 22.1109 22.1109 22.1109H18.9522C10.2658 22.1109 3.1587 29.2179 3.1587 37.9044C3.1587 38.773 3.8694 39.4837 4.73804 39.4837H23.6902C24.5589 39.4837 25.2696 40.1944 25.2696 41.063C25.2696 41.9317 24.5589 42.6424 23.6902 42.6424H4.73804C2.13212 42.6424 0 40.5103 0 37.9044C0 29.2969 5.76462 22.0319 13.6614 19.7418C11.1344 17.6887 9.47609 14.609 9.47609 11.0554C9.47609 4.97495 14.451 0 20.5315 0C26.612 0 31.587 4.97495 31.587 11.0554C31.587 14.53 29.9286 17.6887 27.4017 19.7418C28.5862 20.0577 29.7707 20.5315 30.7973 21.0843Z" fill="#0F61DC"/>
</svg>
