<svg width="14" height="21" viewBox="0 0 14 21" fill="none" xmlns="http://www.w3.org/2000/svg">
<path d="M12.9881 4.54775e-05C13.3718 4.54942e-05 13.6829 0.31109 13.6829 0.694783L13.6829 19.6143C13.6829 20.2258 12.9498 20.539 12.5079 20.1163L7.32162 15.1552C7.05301 14.8982 6.62975 14.8982 6.36115 15.1552L1.17488 20.1163C0.73297 20.539 -9.24368e-05 20.2258 -9.24101e-05 19.6143L-9.15831e-05 0.694781C-9.15663e-05 0.311089 0.310953 4.49233e-05 0.694646 4.49401e-05L12.9881 4.54775e-05Z" fill="#E8D226"/>
<path d="M12.9881 4.54775e-05C13.3718 4.54942e-05 13.6829 0.31109 13.6829 0.694783L13.6829 19.6143C13.6829 20.2258 12.9498 20.539 12.5079 20.1163L7.32162 15.1552C7.05301 14.8982 6.62975 14.8982 6.36115 15.1552L1.17488 20.1163C0.73297 20.539 -9.24368e-05 20.2258 -9.24101e-05 19.6143L-9.15831e-05 0.694781C-9.15663e-05 0.311089 0.310953 4.49233e-05 0.694646 4.49401e-05L12.9881 4.54775e-05Z" fill="#9C9C9C"/>
</svg>
