<svg width="35" height="35" viewBox="0 0 35 35" fill="none" xmlns="http://www.w3.org/2000/svg">
<path d="M28.7472 26.4521C28.2667 26.4521 27.8059 26.2612 27.4662 25.9214C27.1264 25.5817 26.9355 25.1209 26.9355 24.6404C26.9355 24.1599 27.1264 23.699 27.4662 23.3593C27.8059 23.0195 28.2667 22.8286 28.7472 22.8286C29.2118 22.8286 29.6574 22.6441 29.986 22.3155C30.3145 21.987 30.499 21.5414 30.499 21.0768V5.37525C30.499 4.91064 30.3145 4.46506 29.986 4.13653C29.6574 3.80801 29.2118 3.62344 28.7472 3.62344H13.0457C12.5811 3.62344 12.1355 3.80801 11.8069 4.13653C11.4784 4.46506 11.2939 4.91064 11.2939 5.37525C11.2939 5.85575 11.103 6.31657 10.7632 6.65633C10.4234 6.99609 9.96263 7.18697 9.48213 7.18697C9.00163 7.18697 8.54081 6.99609 8.20105 6.65633C7.86129 6.31657 7.67041 5.85575 7.67041 5.37525C7.67358 3.95062 8.24091 2.58524 9.24828 1.57787C10.2557 0.5705 11.621 0.00316516 13.0457 0H28.7472C30.1719 0.00316516 31.5372 0.5705 32.5446 1.57787C33.552 2.58524 34.1193 3.95062 34.1225 5.37525V21.0768C34.1193 22.5015 33.552 23.8668 32.5446 24.8742C31.5372 25.8816 30.1719 26.4489 28.7472 26.4521Z" fill="#CACACA"/>
<path d="M20.715 34.3053H5.67721C4.93141 34.3063 4.19274 34.1601 3.50352 33.8751C2.8143 33.5901 2.18808 33.172 1.66071 32.6446C1.13335 32.1172 0.715203 31.491 0.430232 30.8018C0.145261 30.1126 -0.000938145 29.3739 8.11148e-06 28.6281V13.5304C-0.00125371 12.7844 0.144712 12.0455 0.429542 11.356C0.714372 10.6665 1.13247 10.04 1.65986 9.51239C2.18726 8.98477 2.81359 8.56641 3.50297 8.28129C4.19234 7.99617 4.9312 7.84989 5.67721 7.85083H20.715C21.4608 7.84989 22.1994 7.99609 22.8887 8.28106C23.5779 8.56603 24.2041 8.98417 24.7315 9.51154C25.2588 10.0389 25.677 10.6651 25.962 11.3543C26.2469 12.0436 26.3931 12.7822 26.3922 13.528V28.6257C26.4521 31.7675 23.8567 34.3053 20.715 34.3053ZM5.67721 11.4743C5.40689 11.472 5.13882 11.5236 4.88863 11.6261C4.63845 11.7285 4.41116 11.8797 4.22 12.0708C4.02884 12.262 3.87765 12.4893 3.77523 12.7395C3.67281 12.9896 3.62121 13.2577 3.62345 13.528V28.6257C3.62121 28.896 3.67281 29.1641 3.77523 29.4143C3.87765 29.6645 4.02884 29.8918 4.22 30.0829C4.41116 30.2741 4.63845 30.4253 4.88863 30.5277C5.13882 30.6301 5.40689 30.6817 5.67721 30.6795H20.715C20.9853 30.6817 21.2534 30.6301 21.5036 30.5277C21.7537 30.4253 21.981 30.2741 22.1722 30.0829C22.3633 29.8918 22.5145 29.6645 22.617 29.4143C22.7194 29.1641 22.771 28.896 22.7687 28.6257V13.528C22.771 13.2577 22.7194 12.9896 22.617 12.7395C22.5145 12.4893 22.3633 12.262 22.1722 12.0708C21.981 11.8797 21.7537 11.7285 21.5036 11.6261C21.2534 11.5236 20.9853 11.472 20.715 11.4743H5.67721Z" fill="#CACACA"/>
</svg>
