<svg xmlns="http://www.w3.org/2000/svg" width="100" height="120" viewBox="0 0 100 120">
<path fill="#ea4335" stroke="#b41512" stroke-width="2" d="M50 43a1 1 0 1 1 0 2 1 1 0 0 1 0-2Zm0-1a2 2 0 1 1 0 4 2 2 0 0 1 0-4Zm0-2a4 4 0 1 1 0 8 4 4 0 0 1 0-8Zm0-2a6 6 0 1 1 0 12 6 6 0 0 1 0-12Zm0-2a8 8 0 1 1 0 16 8 8 0 0 1 0-16Zm0-2a10 10 0 1 1 0 20 10 10 0 0 1 0-20Zm0-2a12 12 0 1 1 0 24 12 12 0 0 1 0-24Zm0-22c20 0 35 15 35 35 0 17-17 30-24 40-8 11-10 22-11 23-1-1-3-12-11-23-7-10-24-23-24-40 0-20 15-35 35-35Z"/>
</svg>
