<svg width="38" height="48" viewBox="0 0 38 48" fill="none" xmlns="http://www.w3.org/2000/svg">
<path d="M31.7247 6.50819L31.6063 6.38979C28.2914 2.95645 23.911 0.943848 18.9386 0.943848C13.9662 0.943848 9.58583 2.95645 6.2709 6.27138L6.15249 6.50819C2.95601 9.82308 0.943359 14.4403 0.943359 19.531C0.943359 24.6218 2.95596 29.2391 6.15249 32.5539L6.2709 32.6723L18.9386 45.932L31.6063 32.7907L31.7247 32.6723C34.9212 29.3574 36.9339 24.7402 36.9339 19.5311C36.9339 14.4403 34.9213 9.82308 31.7247 6.50819ZM18.9386 24.8586C15.5053 24.8586 12.664 21.8988 12.664 18.3472C12.664 16.8081 13.1375 15.5058 13.9662 14.4403C15.1501 12.9012 16.926 11.8357 18.9386 11.8357C22.3719 11.8357 25.2133 14.7955 25.2133 18.3471C25.2133 21.8988 22.3719 24.8586 18.9386 24.8586Z" fill="#1E8BFF" stroke="#003CE0" stroke-width="1.88768"/>
</svg>
