<svg width="35" height="32" viewBox="0 0 35 32" fill="none" xmlns="http://www.w3.org/2000/svg">
<path d="M12.4109 0H26.3741C27.6172 0 28.7013 0.777151 29.1671 1.86228L33.8215 12.8791C33.976 13.1882 34.1328 13.4984 34.1328 13.9631V16.912V17.0676C34.1328 18.7733 32.7375 20.1698 31.0284 20.1698H21.2537L22.8059 27.307V27.7729C22.8059 28.3922 22.497 29.0138 22.1855 29.4784L20.4788 31.0306L10.2405 20.7913C9.61776 20.1697 9.30887 19.3948 9.30887 18.6175V3.10439C9.30887 1.39651 10.7041 0 12.4109 0ZM6.20661 18.6175H0V0H6.20661V18.6175Z" fill="#4099FF"/>
</svg>
