<svg width="40" height="37" viewBox="0 0 40 37" fill="none" xmlns="http://www.w3.org/2000/svg">
<path d="M30.9108 1.5H14.5455C13.3749 1.50016 12.4098 2.46436 12.4098 3.63867V21.8203C12.4098 22.3221 12.6064 22.8518 13.0621 23.3066L24.0514 34.2959L24.8463 33.5723C25.0981 33.164 25.229 32.7987 25.2291 32.5508V32.166L23.444 23.958L23.0485 22.1396H36.3658C37.5407 22.1396 38.5044 21.1742 38.5045 20.0039V16.3652C38.5045 16.2725 38.4911 16.2064 38.4684 16.1387C38.4386 16.05 38.3952 15.9611 38.2975 15.7656L38.277 15.7227L38.2574 15.6787L32.8033 2.76562C32.4776 2.01592 31.7293 1.5 30.9108 1.5ZM1.49963 1.5V20.3203H5.77405V1.5H1.49963Z" stroke="#AFAFAF" stroke-width="3"/>
</svg>
