<svg width="64" height="59" viewBox="0 0 64 59" fill="none" xmlns="http://www.w3.org/2000/svg">
<g clip-path="url(#clip0_280_15085)">
<path d="M49.29 2.39189H23.194C21.3274 2.39215 19.7884 3.92965 19.7884 5.8022V34.7945C19.7884 35.5947 20.1019 36.4394 20.8286 37.1646L38.352 54.6881L39.6196 53.5342C40.0211 52.8831 40.2298 52.3006 40.23 51.9053V51.2917L37.3835 38.2033L36.7528 35.3037H57.9885C59.862 35.3037 61.3987 33.7643 61.3989 31.8981V26.0959C61.3989 25.948 61.3775 25.8426 61.3413 25.7347C61.2938 25.5932 61.2246 25.4515 61.0688 25.1397L61.0361 25.0713L61.0049 25.0012L52.3078 4.41004C51.7884 3.21457 50.5952 2.39189 49.29 2.39189ZM2.39111 2.39189V32.4026H9.20708V2.39189H2.39111Z" stroke="#AFAFAF" stroke-width="3.6"/>
</g>
<defs>
<clipPath id="clip0_280_15085">
<rect width="63.7838" height="59" fill="white"/>
</clipPath>
</defs>
</svg>
