<svg width="21" height="19" viewBox="0 0 21 19" fill="none" xmlns="http://www.w3.org/2000/svg">
<path d="M7.45812 0H15.8491C16.5962 0 17.2476 0.467017 17.5275 1.11911L20.3245 7.73949C20.4174 7.92524 20.5116 8.11168 20.5116 8.39093V10.163V10.2565C20.5116 11.2815 19.6731 12.1207 18.6461 12.1207H12.7721L13.7049 16.4097V16.6897C13.7049 17.0619 13.5192 17.4354 13.332 17.7146L12.3064 18.6474L6.15385 12.4942C5.77965 12.1207 5.59402 11.655 5.59402 11.1879V1.86554C5.59402 0.83921 6.43247 0 7.45812 0ZM3.72977 11.1879H-3.81994e-07V0H3.72977V11.1879Z" fill="#9C9C9C"/>
</svg>
