<svg width="31" height="31" viewBox="0 0 31 31" fill="none" xmlns="http://www.w3.org/2000/svg">
<path d="M13.5254 0C13.9737 6.86392e-05 14.4037 0.178223 14.7207 0.495278C15.0377 0.812333 15.2158 1.24232 15.2158 1.69067C15.2158 2.13902 15.0377 2.56901 14.7207 2.88607C14.4037 3.20312 13.9737 3.38128 13.5254 3.38135H3.38135V27.0508H27.0508V16.9067L27.0626 16.7089C27.1135 16.281 27.3259 15.8887 27.6563 15.6121C27.9868 15.3355 28.4103 15.1956 28.8405 15.2208C29.2707 15.2461 29.675 15.4347 29.9708 15.748C30.2666 16.0613 30.4316 16.4758 30.4321 16.9067V27.0508C30.4321 27.9476 30.0759 28.8076 29.4417 29.4417C28.8076 30.0759 27.9476 30.4321 27.0508 30.4321H3.38135C2.48456 30.4321 1.6245 30.0759 0.990374 29.4417C0.356248 28.8076 0 27.9476 0 27.0508V3.38135C0 2.48456 0.356248 1.6245 0.990374 0.990373C1.6245 0.356248 2.48456 0 3.38135 0H13.5254ZM29.9587 0.495367C30.2757 0.812415 30.4537 1.24237 30.4537 1.69067C30.4537 2.13898 30.2757 2.56893 29.9587 2.88598L14.4181 18.4283C14.0992 18.7363 13.6721 18.9067 13.2288 18.9029C12.7855 18.899 12.3615 18.7212 12.048 18.4077C11.7346 18.0943 11.5568 17.6702 11.5529 17.2269C11.5491 16.7837 11.7195 16.3566 12.0274 16.0377L27.5681 0.497058C27.8852 0.180106 28.3151 0.00205152 28.7634 0.00205152C29.2117 0.00205152 29.6417 0.180106 29.9587 0.497058V0.495367Z" fill="#AEAEAE"/>
</svg>
