<svg width="62" height="62" viewBox="0 0 62 62" fill="none" xmlns="http://www.w3.org/2000/svg">
<path d="M61.1218 27.4966C61.1223 27.0942 61.0434 26.6957 60.8896 26.3238C60.7358 25.9519 60.5101 25.6141 60.2255 25.3295C59.9409 25.045 59.603 24.8194 59.2311 24.6657C58.8592 24.512 58.4607 24.4332 58.0582 24.4337H3.06361C2.66119 24.4332 2.26262 24.512 1.89073 24.6657C1.51883 24.8194 1.18092 25.045 0.896333 25.3295C0.61175 25.6141 0.386093 25.9519 0.232286 26.3238C0.078479 26.6957 -0.000455994 27.0942 1.98147e-06 27.4966C1.98147e-06 39.7218 7.23632 50.2681 17.6197 55.1408C16.2831 55.4671 15.2714 56.6242 15.2714 58.0568C15.271 58.4595 15.35 58.8583 15.5039 59.2304C15.6578 59.6024 15.8836 59.9405 16.1684 60.2252C16.4532 60.5098 16.7913 60.7355 17.1635 60.8892C17.5356 61.043 17.9345 61.1218 18.3371 61.1211H42.7854C43.188 61.1216 43.5867 61.0427 43.9586 60.8888C44.3306 60.735 44.6686 60.5093 44.9532 60.2247C45.2379 59.94 45.4636 59.602 45.6174 59.23C45.7712 58.8581 45.8502 58.4594 45.8497 58.0568C45.8497 56.6235 44.8387 55.4664 43.5028 55.1408C53.8848 50.2521 61.1218 39.7218 61.1218 27.4966ZM6.11191 21.3854C6.51439 21.3859 6.91301 21.3069 7.28495 21.1532C7.65689 20.9994 7.99484 20.7737 8.27947 20.4892C8.5641 20.2046 8.78981 19.8667 8.94369 19.4948C9.09756 19.1229 9.17658 18.7243 9.17621 18.3218C9.17621 14.9458 11.9156 12.2092 15.2888 12.2092C16.8147 12.2139 18.2821 12.7967 19.3954 13.8402C19.8179 14.2302 20.3425 14.4923 20.9081 14.596C21.4737 14.6997 22.0571 14.6408 22.5905 14.426C23.6816 13.9856 24.4316 12.976 24.4963 11.8022C24.7239 8.60844 27.3818 6.1133 30.5602 6.1133C33.7386 6.1133 36.3966 8.62305 36.6248 11.8175C36.6633 12.3922 36.8645 12.9442 37.2049 13.4089C37.5453 13.8737 38.0109 14.232 38.5473 14.442C39.0808 14.6576 39.6645 14.7169 40.2304 14.613C40.7963 14.5092 41.321 14.2464 41.7431 13.8555C42.8828 12.8125 44.351 12.2245 45.8497 12.2245C49.223 12.2245 51.9623 14.9639 51.9623 18.3371C51.9617 18.7396 52.0405 19.1382 52.1942 19.5101C52.3479 19.882 52.5734 20.22 52.858 20.5046C53.1425 20.7892 53.4804 21.0148 53.8523 21.1686C54.2242 21.3224 54.6228 21.4013 55.0253 21.4007C55.4277 21.4012 55.8264 21.3222 56.1983 21.1685C56.5702 21.0147 56.9082 20.789 57.1928 20.5045C57.4774 20.2199 57.7032 19.882 57.857 19.5101C58.0109 19.1382 58.0899 18.7396 58.0896 18.3371C58.0896 11.5885 52.6129 6.1126 45.865 6.1126C44.3816 6.1126 42.9155 6.39023 41.5455 6.91068C39.5583 2.82008 35.3696 0 30.5762 0C25.801 0 21.5969 2.80477 19.6076 6.91138C18.2287 6.38437 16.765 6.11389 15.2888 6.1133C8.54025 6.1133 3.06361 11.5892 3.06361 18.3378C3.06306 18.7382 3.14154 19.1348 3.29454 19.5049C3.44755 19.8749 3.67207 20.2111 3.95525 20.4943C4.23843 20.7774 4.5747 21.0018 4.94478 21.1547C5.31486 21.3077 5.71148 21.3861 6.11191 21.3854Z" fill="#D9D9D9"/>
</svg>
