<svg width="176" height="232" viewBox="0 0 176 232" fill="none" xmlns="http://www.w3.org/2000/svg">
<mask id="path-1-inside-1_280_15084" fill="white">
<path d="M175.434 138.4H120.265V231.622H55.1689V138.4H0L87.7168 0L175.434 138.4Z"/>
</mask>
<path d="M175.434 138.4V146.4H189.975L182.191 134.118L175.434 138.4ZM120.265 138.4V130.4H112.265V138.4H120.265ZM120.265 231.622V239.622H128.265V231.622H120.265ZM55.1689 231.622H47.1689V239.622H55.1689V231.622ZM55.1689 138.4H63.1689V130.4H55.1689V138.4ZM0 138.4L-6.75716 134.118L-14.5418 146.4H0V138.4ZM87.7168 0L94.474 -4.28262L87.7168 -14.9441L80.9596 -4.28262L87.7168 0ZM175.434 138.4V130.4H120.265V138.4V146.4H175.434V138.4ZM120.265 138.4H112.265V231.622H120.265H128.265V138.4H120.265ZM120.265 231.622V223.622H55.1689V231.622V239.622H120.265V231.622ZM55.1689 231.622H63.1689V138.4H55.1689H47.1689V231.622H55.1689ZM55.1689 138.4V130.4H0V138.4V146.4H55.1689V138.4ZM0 138.4L6.75716 142.683L94.474 4.28262L87.7168 0L80.9596 -4.28262L-6.75716 134.118L0 138.4ZM87.7168 0L80.9596 4.28262L168.676 142.683L175.434 138.4L182.191 134.118L94.474 -4.28262L87.7168 0Z" fill="black" mask="url(#path-1-inside-1_280_15084)"/>
</svg>
