<svg width="49" height="58" viewBox="0 0 49 58" fill="none" xmlns="http://www.w3.org/2000/svg">
<path d="M44.7319 57.8174H2.96975C1.39207 57.8174 0 56.5181 0 54.8476V2.59853C0 1.20646 1.11366 0 2.59853 0H28.3983C29.4191 0 30.2544 0.835243 30.2544 1.8561C30.2544 2.87695 29.4191 3.71219 28.3983 3.71219H3.805V54.1052H44.3607V18.4682C44.3607 17.4473 45.1959 16.6121 46.2168 16.6121C47.2376 16.6121 48.0729 17.4473 48.0729 18.4682V54.5692C47.9801 56.3325 46.588 57.8174 44.7319 57.8174Z" fill="#D9D9D9"/>
<path d="M29.2334 20.7883C28.4909 20.7883 27.8413 20.5099 27.3773 20.0458C26.8205 19.489 26.542 18.7466 26.542 17.7257V2.50573C26.542 1.9489 26.542 0.742438 27.7485 0.18561C28.5837 -0.18561 29.3262 -5.5316e-08 30.1614 0.742438L47.1447 16.6121C47.8871 17.3545 48.1656 18.2825 47.8871 19.2106C47.5159 20.1386 46.6807 20.6955 45.567 20.6955L29.2334 20.7883ZM30.2542 5.93951V17.0761L42.1332 16.9833L30.2542 5.93951Z" fill="#D9D9D9"/>
<path d="M28.027 34.0597H10.3941C9.37321 34.0597 8.53796 33.2245 8.53796 32.2036C8.53796 31.1828 9.37321 30.3475 10.3941 30.3475H28.027C29.0478 30.3475 29.8831 31.1828 29.8831 32.2036C29.8831 33.2245 29.0478 34.0597 28.027 34.0597ZM21.7162 22.9231H10.3941C9.37321 22.9231 8.53796 22.0879 8.53796 21.067C8.53796 20.0462 9.37321 19.2109 10.3941 19.2109H21.6234C22.6443 19.2109 23.4795 20.0462 23.4795 21.067C23.4795 22.0879 22.7371 22.9231 21.7162 22.9231ZM34.0593 45.2891H10.3941C9.37321 45.2891 8.53796 44.4538 8.53796 43.433C8.53796 42.4121 9.37321 41.5769 10.3941 41.5769H34.0593C35.0801 41.5769 35.9154 42.4121 35.9154 43.433C35.9154 44.4538 35.0801 45.2891 34.0593 45.2891Z" fill="#D9D9D9"/>
</svg>
