<svg width="63" height="59" viewBox="0 0 63 59" fill="none" xmlns="http://www.w3.org/2000/svg">
<path d="M44.1528 2.71881C52.2776 2.71881 59.2664 9.99502 59.2664 19.4602C59.2664 24.9124 56.9381 28.6596 54.6985 32.1738L54.6444 32.2566L54.6282 32.28L54.612 32.3053C51.6047 37.0337 46.2111 42.477 41.3241 46.9057C36.4872 51.2891 32.362 54.4865 32.0729 54.7076L32.0495 54.7255L32.0261 54.7454C31.7038 55.0029 31.3656 55.118 31.0124 55.118C30.6043 55.118 30.2822 55.0072 29.9699 54.7544C29.4806 54.3567 25.4385 51.2177 20.6593 46.8914C15.7714 42.4667 10.38 37.0326 7.37313 32.3053L7.36954 32.2999L6.55569 31.0143C4.64126 27.9433 2.71879 24.3257 2.71875 19.4602C2.71875 9.99902 9.74268 2.71881 17.8325 2.71881C21.9844 2.719 26.0138 4.61749 28.9435 8.0466L31.0339 10.4917L33.0975 8.02499C35.9743 4.58598 39.9512 2.719 44.1528 2.71881Z" stroke="#AFAFAF" stroke-width="3.6"/>
</svg>
