<svg width="34" height="32" viewBox="0 0 34 32" fill="none" xmlns="http://www.w3.org/2000/svg">
<path d="M23.9473 1.47461C28.354 1.47461 32.1445 5.42103 32.1445 10.5547C32.1445 13.5118 30.8817 15.5442 29.667 17.4502L29.6377 17.4951L29.6289 17.5078L29.6201 17.5215C27.989 20.0861 25.0637 23.0384 22.4131 25.4404C19.7897 27.8178 17.5523 29.552 17.3955 29.6719L17.3828 29.6816L17.3701 29.6924C17.1953 29.8321 17.0119 29.8945 16.8203 29.8945C16.599 29.8945 16.4243 29.8344 16.2549 29.6973C15.9895 29.4816 13.7972 27.7791 11.2051 25.4326C8.55401 23.0328 5.62984 20.0855 3.99902 17.5215L3.99707 17.5186L3.55566 16.8213C2.51733 15.1557 1.47463 13.1936 1.47461 10.5547C1.47461 5.4232 5.2842 1.47461 9.67188 1.47461C11.9238 1.47471 14.1092 2.5044 15.6982 4.36426L16.832 5.69043L17.9512 4.35254C19.5115 2.48731 21.6685 1.47471 23.9473 1.47461Z" stroke="#AFAFAF" stroke-width="2.95009"/>
</svg>
