<svg width="19" height="18" viewBox="0 0 19 18" fill="none" xmlns="http://www.w3.org/2000/svg">
<path d="M9.45977 17.6425C9.15233 17.6425 8.86853 17.5479 8.62022 17.3469C8.4192 17.1813 3.51194 13.3856 1.54904 10.2993C0.898678 9.2824 0 7.89891 0 5.93601C0 2.66056 2.44772 0 5.43937 0C6.96476 0 8.4192 0.697658 9.45977 1.9156C10.4885 0.685834 11.9311 0 13.4683 0C16.4718 0 18.9077 2.66056 18.9077 5.93601C18.9077 7.86344 18.0682 9.1878 17.3823 10.2639L17.3587 10.2993C15.3958 13.3856 10.4885 17.1931 10.2875 17.3469C10.051 17.5361 9.76721 17.6425 9.45977 17.6425Z" fill="#9C9C9C"/>
</svg>
