<svg width="34" height="32" viewBox="0 0 34 32" fill="none" xmlns="http://www.w3.org/2000/svg">
<path d="M16.8201 31.3695C16.2734 31.3695 15.7688 31.2013 15.3273 30.8438C14.9699 30.5495 6.24446 23.8004 2.75429 18.3129C1.59791 16.5047 0 14.0448 0 10.5546C0 4.73065 4.3522 0 9.67155 0C12.3838 0 14.9699 1.24048 16.8201 3.40607C18.6493 1.21946 21.2143 0 23.9476 0C29.288 0 33.6191 4.73065 33.6191 10.5546C33.6191 13.9817 32.1264 16.3365 30.9069 18.2498L30.8649 18.3129C27.3747 23.8004 18.6493 30.5705 18.2918 30.8438C17.8713 31.1802 17.3667 31.3695 16.8201 31.3695Z" fill="#FF6ECB"/>
</svg>
