<svg width="63" height="61" viewBox="0 0 63 61" fill="none" xmlns="http://www.w3.org/2000/svg">
<path d="M19.4689 45.6256C20.096 42.4388 20.1867 37.7715 20.1867 37.5559L45.321 35.6246C45.4231 35.7917 46.5941 39.7469 46.6445 39.9115C46.8504 40.6291 47.1794 41.3919 47.5067 42.2797C47.8355 43.6279 48.0435 44.6925 48.121 45.5872C48.1938 46.4267 48.3343 47.1213 48.3811 47.8307C48.4571 48.984 48.3013 50.4088 48.2162 51.1737L48.2104 51.2257C48.103 52.1915 47.9645 53.4369 47.4648 54.1952C46.8977 55.0556 46.4598 56.122 44.864 56.9292C44.0155 57.3583 43.2775 57.7733 42.453 57.9079C41.7005 58.0308 40.9384 58.0915 39.9077 58.2411C37.8796 58.5356 36.7679 59.0057 32.6937 58.8465C29.5255 58.7227 27.8359 58.4676 26.2361 58.2531C24.9134 58.0758 24.0153 57.913 22.9625 57.6953C22.078 57.5125 21.1 57.3396 20.4462 56.7468C19.9119 56.2625 19.5811 55.6823 19.5194 54.8527C19.4006 53.2549 19.0396 51.9467 19.0792 50.6174C19.1458 48.3821 19.2113 46.9344 19.4689 45.6256Z" fill="#FFFAD9" stroke="#2D3436" stroke-width="2.49846" stroke-linecap="round"/>
<path d="M29.3589 46.6862C29.4241 46.6798 29.4893 46.6733 29.6068 46.6544C29.7243 46.6354 29.8922 46.6042 30.1002 46.5791C30.3082 46.554 30.5513 46.5358 30.9237 46.5017" stroke="#2D3436" stroke-width="1.91753" stroke-linecap="round"/>
<path d="M40.272 46.3421C40.3324 46.3421 40.5858 46.337 40.9571 46.335C41.1063 46.338 41.1757 46.3494 41.2463 46.3635C41.3169 46.3776 41.3865 46.394 41.4734 46.4261" stroke="#2D3436" stroke-width="1.91753" stroke-linecap="round"/>
<path d="M34.9155 51.5979C34.9255 51.5979 34.9356 51.5979 35.2022 51.6036C35.4687 51.6094 35.9916 51.6209 36.3527 51.6236C36.7139 51.6262 36.8974 51.6198 37.2386 51.6283" stroke="#2D3436" stroke-width="1.91753" stroke-linecap="round"/>
<path d="M37.4381 52.4543C37.4484 52.8625 37.3907 53.4401 37.3552 53.848C37.3449 54.029 37.3344 54.2219 37.3213 54.4171C37.3135 54.5066 37.3033 54.5768 37.2773 54.7099" stroke="#6FDFFF" stroke-width="1.91753" stroke-linecap="round"/>
<mask id="mask0_255_15108" style="mask-type:alpha" maskUnits="userSpaceOnUse" x="1" y="1" width="61" height="41">
<path d="M1.6785 27.1803C2.36825 25.9105 5.43893 21.2838 6.28885 20.439C6.67659 19.696 6.82679 19.4751 6.96398 19.2393C7.49702 18.2885 8.27698 17.1508 8.92381 16.0242C9.51101 15.0433 10.1823 13.6122 11.3109 12.552C13.0046 10.961 15.2873 8.37285 17.9102 6.91509C24.1407 3.45237 26.4248 2.47507 29.4233 1.90647C31.002 1.60712 35.2702 0.56012 40.1942 1.95925C44.0558 3.05651 45.8985 4.12662 47.3772 5.28822C49.6828 7.09942 52.2757 9.60579 53.7611 11.6578C54.5237 12.7112 56.3581 14.5645 57.4248 16.5594C58.4501 18.4769 59.9247 19.2837 60.6953 22.9576C61.4699 26.6507 61.6823 29.4564 60.3933 31.5871C58.8427 34.1503 57.9377 35.9652 54.5947 37.0122C49.1554 38.7157 45.5015 39.8764 43.4007 39.9788C42.3173 40.0315 38.4764 40.6997 30.8651 41.014C26.5034 41.1942 21.1738 41.2182 18.2374 41.1028C14.7668 40.9664 13.1868 40.94 8.5343 39.4716C5.90924 38.6431 4.51473 38.1985 3.73785 36.9612C1.90857 34.0479 0.50783 29.3354 1.6785 27.1803Z" fill="#FF4E4E"/>
</mask>
<g mask="url(#mask0_255_15108)">
<path d="M1.6785 27.1803C2.36825 25.9105 5.43893 21.2838 6.28885 20.439C6.67659 19.696 6.82679 19.4751 6.96398 19.2393C7.49702 18.2885 8.27698 17.1508 8.92381 16.0242C9.51101 15.0433 10.1823 13.6122 11.3109 12.552C13.0046 10.961 15.2873 8.37285 17.9102 6.91509C24.1407 3.45237 26.4248 2.47507 29.4233 1.90647C31.002 1.60712 35.2702 0.56012 40.1942 1.95925C44.0558 3.05651 45.8985 4.12662 47.3772 5.28822C49.6828 7.09942 52.2757 9.60579 53.7611 11.6578C54.5237 12.7112 56.3581 14.5645 57.4248 16.5594C58.4501 18.4769 59.9247 19.2837 60.6953 22.9576C61.4699 26.6507 61.6823 29.4564 60.3933 31.5871C58.8427 34.1503 57.9377 35.9652 54.5947 37.0122C49.1554 38.7157 45.5015 39.8764 43.4007 39.9788C42.3173 40.0315 38.4764 40.6997 30.8651 41.014C26.5034 41.1942 21.1738 41.2182 18.2374 41.1028C14.7668 40.9664 13.1868 40.94 8.5343 39.4716C5.90924 38.6431 4.51473 38.1985 3.73785 36.9612C1.90857 34.0479 0.50783 29.3354 1.6785 27.1803Z" fill="#FF4E4E"/>
<path d="M58.611 15.5007C59.1926 15.3984 59.0564 15.4304 59.1494 15.404C59.2045 15.3884 59.4022 15.3474 59.4569 15.3443C59.5639 15.3349 59.4831 15.304 59.7178 15.3005C59.9646 15.2831 60.1864 15.3193 60.4115 15.3608C60.7681 15.4266 61.2557 15.6273 61.7273 16.1925L61.7346 16.2013C62.0938 16.6317 62.4694 17.0819 62.664 17.7045C62.9502 18.62 63.1196 19.2364 63.1227 19.4583C63.1274 19.7861 63.1281 20.1372 63.0281 20.544C62.8774 21.1572 62.5574 21.9831 62.3321 22.7425C62.2301 23.0863 62.209 23.3341 62.026 23.6619C61.6318 24.368 61.3677 24.8321 60.3971 25.1022C59.621 25.3182 58.9007 25.418 58.3125 25.4021C57.6543 25.3842 57.2495 25.3585 57.0321 25.3484C56.6264 25.3296 56.0191 25.3102 55.4782 25.1852C55.1999 25.1209 54.9732 25.0842 54.6716 24.9688C53.8873 24.6688 53.3099 24.3892 53.0442 24.1227C52.851 23.929 52.3076 23.5599 52.0307 22.996C51.8518 22.6319 51.6082 22.0484 51.5525 21.3914C51.5125 20.9203 51.4877 20.5302 51.6688 20.0598C51.9518 19.3247 52.1693 18.8355 52.2581 18.6558C52.5047 18.1564 52.6054 17.8242 53.2713 17.2642C53.6462 16.9488 54.0002 16.6921 54.4844 16.4868C54.7933 16.3558 55.2306 16.191 56.0484 16.0013C56.8663 15.8115 58.0294 15.6031 58.611 15.5007Z" fill="#F7F7F7" stroke="#F7F7F7" stroke-width="0.174776" stroke-linecap="round"/>
<path d="M35.3986 40.3812C35.9358 40.9269 36.2891 41.2411 36.4029 41.301C36.516 41.3869 36.8171 41.6057 36.8713 41.6556C36.9898 41.7649 37.1881 41.9363 37.3556 42.0742C37.5138 42.2335 37.7517 42.3368 38.5099 42.6018C38.8578 42.7234 39.5678 42.9348 40.0544 43.0566C40.2792 43.1129 40.7639 43.3329 41.3776 43.3237C42.4142 43.3081 43.2687 43.1542 43.6712 43.1215C43.9013 43.1028 44.3862 43.0271 45.2415 42.6989C46.0425 42.3915 46.9939 41.8447 47.3787 41.5625C47.5293 41.4522 48.0217 41.0555 48.6894 40.3107C49.012 39.9509 49.3187 39.6197 49.4651 39.2502C49.9058 38.1376 50.0872 37.8263 50.0891 37.0018C50.0907 36.3242 50.0773 35.8815 49.9221 35.2601C49.7827 34.7018 49.5209 33.681 49.3539 33.0713C49.1869 32.4615 49.1167 32.2688 48.9107 31.8486C48.7046 31.4284 48.4098 30.7761 48.1518 30.412C47.5925 29.623 47.2676 29.2417 46.2387 28.9082C45.4713 28.6595 45.0105 28.4985 44.764 28.4195C44.2536 28.2561 43.568 28.0461 42.929 27.9751C42.4759 27.9247 41.8026 27.9057 41.047 27.9496C40.6909 27.9704 40.5297 27.9579 40.2517 28.0204C39.7249 28.139 39.1171 28.347 38.5914 28.5971C38.1209 28.821 37.3529 29.2583 36.4752 29.8695C36.1075 30.1255 35.8998 30.2939 35.6067 30.588C35.3136 30.882 34.9463 31.2894 34.6582 31.7391C34.3701 32.1888 34.1672 32.6664 34.0313 33.1048C33.8954 33.5432 33.8285 33.9305 33.7897 34.5479C33.751 35.1652 33.7323 35.9878 33.7408 36.4453C33.7509 36.9931 33.7963 37.2014 33.8453 37.4022C33.9333 37.7635 34.0511 38.283 34.3209 38.7893C34.6083 39.3288 34.9415 39.9168 35.3986 40.3812Z" fill="#F7F7F7" stroke="#F7F7F7" stroke-width="0.238662" stroke-linecap="round"/>
<path d="M19.685 29.8822C19.8474 29.3986 20.2085 28.5927 20.9235 28.1735C21.6385 27.7543 21.561 27.7421 21.9378 27.6011C22.3145 27.4601 22.4117 27.3134 22.8507 27.2606C23.2896 27.2078 23.5534 27.2606 24.1202 27.3297C24.8309 27.4164 25.4376 27.6781 25.7577 28.554C25.9525 29.0873 26.1456 29.7261 25.9146 30.5176C25.8178 30.8494 25.6956 31.1308 25.3496 31.3899C25.1155 31.5652 24.9442 31.897 23.6512 32.3272C23.1676 32.4882 21.8086 32.8696 20.8819 32.3583C20.4028 32.094 19.874 31.7368 19.7102 31.1961C19.6098 30.8644 19.4853 30.4771 19.685 29.8822Z" fill="#F7F7F7" stroke="#F7F7F7" stroke-width="0.238662" stroke-linecap="round"/>
<path d="M8.01168 12.4937C7.44348 11.6511 7.11134 11.3701 7.01158 11.1779C6.95081 11.0609 6.77117 10.7257 6.72981 10.6782C6.65455 10.5805 6.59557 10.4642 6.53962 10.3349C6.42395 10.0752 6.4639 9.82403 6.52152 9.46172L6.52367 9.44819C6.63277 8.76189 6.66945 8.39514 7.01158 7.71985C7.24666 7.25583 7.72705 6.42759 8.51324 5.61306C9.05914 5.04747 9.60787 4.58219 10.2282 4.21021C10.7145 3.91862 11.1868 3.64097 11.7535 3.4874C12.3348 3.32988 13.0407 3.20193 14.5683 3.24261C15.6989 3.27272 17.5139 3.29156 18.5195 3.4235C20.0105 3.61912 20.4737 3.73674 20.8156 4.13229C21.1716 4.54425 21.552 5.01453 21.6394 6.57765C21.6898 7.47823 21.6901 7.73141 21.6724 8.65761C21.6547 9.58381 21.819 10.1345 21.4606 10.8895C21.1022 11.6444 20.8213 11.9027 20.3365 12.486C19.8517 13.0692 19.7228 13.1385 19.0752 13.5614C18.4277 13.9843 17.9196 14.226 17.4692 14.3992C17.0187 14.5723 16.6373 14.674 16.0463 14.7704C15.4552 14.8667 14.678 14.955 13.874 14.9796C13.07 15.0041 12.2585 15.0103 11.7997 14.9349C10.9335 14.7927 9.89313 14.4382 9.29149 13.8806C8.87487 13.4945 8.40689 13.0799 8.01168 12.4937Z" fill="#F7F7F7"/>
</g>
<path d="M1.6785 27.1803C2.36825 25.9105 5.43893 21.2838 6.28885 20.439C6.67659 19.696 6.82679 19.4751 6.96398 19.2393C7.49702 18.2885 8.27698 17.1508 8.92381 16.0242C9.51101 15.0433 10.1823 13.6122 11.3109 12.552C13.0046 10.961 15.2873 8.37285 17.9102 6.91509C24.1407 3.45237 26.4248 2.47507 29.4233 1.90647C31.002 1.60712 35.2702 0.56012 40.1942 1.95925C44.0558 3.05651 45.8985 4.12662 47.3772 5.28822C49.6828 7.09942 52.2757 9.60579 53.7611 11.6578C54.5237 12.7112 56.3581 14.5645 57.4248 16.5594C58.4501 18.4769 59.9247 19.2837 60.6953 22.9576C61.4699 26.6507 61.6823 29.4564 60.3933 31.5871C58.8427 34.1503 57.9377 35.9652 54.5947 37.0122C49.1554 38.7157 45.5015 39.8764 43.4007 39.9788C42.3173 40.0315 38.4764 40.6997 30.8651 41.014C26.5034 41.1942 21.1738 41.2182 18.2374 41.1028C14.7668 40.9664 13.1868 40.94 8.5343 39.4716C5.90924 38.6431 4.51473 38.1985 3.73785 36.9612C1.90857 34.0479 0.50783 29.3354 1.6785 27.1803Z" stroke="#2D3436" stroke-width="2.49846" stroke-linecap="round"/>
<path d="M36.5356 7.13416C37.3215 7.07315 38.4335 7.1598 38.9634 7.19763L39.019 7.20154C39.8377 7.25993 40.628 7.31638 41.1372 7.46814C41.6118 7.60959 42.0516 7.71777 42.4146 7.8363C42.7788 7.9553 43.0833 8.08908 43.2935 8.29138C43.7607 8.74109 44.1866 9.15536 44.3833 9.66736C44.547 10.0933 44.6979 10.7706 44.7886 11.4594C44.8792 12.1478 44.9105 12.856 44.8335 13.3412C44.6983 14.1921 44.2608 14.9505 43.686 15.6898C43.2886 16.2011 42.856 16.7671 42.4165 17.2445C41.9783 17.7205 41.5264 18.1172 41.0864 18.2797C40.055 18.6606 38.869 19.2321 36.2974 19.5052C35.1009 19.6323 33.3507 19.8105 32.3579 19.806C31.1415 19.8006 30.5034 19.5983 30.0122 19.2728C29.5544 18.9694 28.6042 18.379 28.3091 17.3109C28.1407 16.7013 28.0845 15.9698 28.3638 14.9711C28.6261 14.0326 28.9476 12.9546 29.5981 11.9672C29.7948 11.6687 30.7508 10.5743 32.2651 9.28943C33.0685 8.60784 33.5406 8.3369 33.9741 8.14685L34.1255 8.05505C34.1949 8.01283 34.2791 7.96182 34.3628 7.9115C34.5282 7.8121 34.6998 7.71144 34.7583 7.68494C34.8658 7.63626 34.9748 7.57936 35.0806 7.52576L35.0845 7.52283C35.495 7.35607 35.9924 7.17636 36.5356 7.13416Z" fill="#F7F7F7" stroke="#F7F7F7" stroke-width="0.119331" stroke-linecap="round"/>
<path d="M7.5668 24.4576C7.98967 24.1256 8.63842 23.5705 8.6637 23.5705C8.74594 23.5162 8.7885 23.4818 8.83087 23.4475L8.83396 23.445C8.87738 23.4099 8.92032 23.3755 8.98193 23.3339C9.24788 23.1795 9.52322 23.0264 9.95061 22.9982C10.3104 22.9746 10.7851 22.9284 11.0787 22.968C11.3573 23.0056 11.6071 22.9825 12.0766 23.1725C12.7824 23.458 13.3705 23.7086 13.6698 23.8984C14.0316 24.1278 14.2945 24.2948 14.3985 24.4289C14.6617 24.7687 14.9893 25.1817 15.0477 25.8141C15.0722 26.0782 15.0806 26.7629 15.067 27.2558C15.0628 27.4081 15.1225 28.0187 14.8361 28.7935C14.6498 29.2973 14.2898 29.7185 13.8702 30.1908C13.2402 30.9 12.795 31.2221 12.2741 31.6171C11.626 32.1084 11.3265 32.4795 10.4366 32.7839C9.96509 32.9451 9.1735 33.1921 8.63403 33.3391C8.09455 33.4862 7.81684 33.5525 7.60105 33.5547C6.97881 33.5611 6.60957 33.5803 6.10506 33.1994C5.43652 32.6946 5.13058 32.4415 4.92795 31.9201C4.75988 31.4877 4.57409 31.0034 4.53414 30.4273C4.48139 29.6666 4.47349 29.1218 4.55092 28.8821C4.64036 28.6052 4.77498 28.2356 5.24165 27.5176C5.58447 26.9901 6.15075 26.1643 6.58798 25.5838C7.0252 25.0032 7.30913 24.6599 7.5668 24.4576Z" fill="#F7F7F7" stroke="#F7F7F7" stroke-width="0.119331" stroke-linecap="round"/>
</svg>
