<svg width="66" height="63" viewBox="0 0 66 63" fill="none" xmlns="http://www.w3.org/2000/svg">
<path d="M47.6362 36.2218C47.7183 36.3562 47.7711 36.5069 47.7729 36.5118C47.7938 36.5678 47.8158 36.6333 47.8384 36.7003C47.8842 36.8364 47.9422 37.0141 48.0054 37.215C48.1324 37.6186 48.2915 38.1392 48.4478 38.6554C48.6043 39.1726 48.7588 39.6898 48.8774 40.087C48.9367 40.2854 48.9869 40.4542 49.0239 40.5782C49.0424 40.6403 49.0576 40.691 49.0688 40.7286C49.0745 40.7475 49.079 40.763 49.0825 40.7745C49.0842 40.7802 49.0854 40.7847 49.0864 40.7882C49.0869 40.7898 49.0881 40.7911 49.0884 40.7921V40.7941L49.0913 40.8048L49.0952 40.8156C49.2848 41.4761 49.567 42.1161 49.9282 43.0958L49.9526 43.1632L49.9702 43.2325C50.3035 44.5993 50.5288 45.7371 50.6147 46.7277C50.648 47.1115 50.6976 47.4647 50.7485 47.838C50.798 48.2011 50.8508 48.5932 50.8774 48.9972C50.962 50.2797 50.7905 51.8155 50.7075 52.5607L50.7017 52.6124C50.649 53.0857 50.5814 53.6979 50.4565 54.2931C50.3346 54.8743 50.1358 55.5566 49.7573 56.131C49.2795 56.856 48.6431 58.2978 46.6772 59.2921C45.9175 59.6764 44.9676 60.2161 43.9038 60.3898C43.4971 60.4562 43.0928 60.5049 42.6821 60.5538C42.266 60.6034 41.8333 60.6536 41.3364 60.7257C39.4103 61.0054 38.1187 61.508 33.894 61.3429C30.6631 61.2166 28.9239 60.9544 27.3198 60.7394C25.9641 60.5576 25.0368 60.3898 23.9595 60.1671C23.5489 60.0823 23.0021 59.9783 22.4858 59.8126C21.9602 59.6439 21.3665 59.3829 20.8569 58.921C20.1069 58.2411 19.6105 57.3705 19.5229 56.1935C19.4677 55.4506 19.3579 54.7847 19.2534 54.0616C19.1523 53.3621 19.0563 52.6097 19.0796 51.8282C19.1457 49.6114 19.2119 48.0598 19.4927 46.6329C19.7901 45.1214 19.9658 43.2228 20.0659 41.6456C20.1156 40.8636 20.1456 40.1724 20.1636 39.6642C20.1725 39.4104 20.1785 39.2026 20.1821 39.0529C20.1839 38.9781 20.1853 38.9178 20.186 38.8741C20.1864 38.8525 20.1869 38.835 20.187 38.8224V37.6476L21.3403 37.5587L46.4751 35.6281L47.2378 35.5695L47.6362 36.2218Z" fill="#FFFAD9" stroke="#2D3436" stroke-width="2.49846" stroke-linecap="round"/>
<path d="M30.6084 47.9348C30.6736 47.9283 30.7388 47.9218 30.8563 47.9029C30.9739 47.884 31.1417 47.8528 31.3497 47.8277C31.5577 47.8025 31.8008 47.7844 32.1732 47.7502" stroke="#2D3436" stroke-width="1.91753" stroke-linecap="round"/>
<path d="M41.5215 47.5906C41.582 47.5906 41.8353 47.5855 42.2066 47.5835C42.3558 47.5866 42.4252 47.598 42.4958 47.6121C42.5664 47.6261 42.636 47.6425 42.723 47.6746" stroke="#2D3436" stroke-width="1.91753" stroke-linecap="round"/>
<path d="M36.165 52.8464C36.1751 52.8464 36.1851 52.8464 36.4517 52.8522C36.7183 52.8579 37.2411 52.8694 37.6022 52.8721C37.9634 52.8748 38.1469 52.8683 38.4881 52.8768" stroke="#2D3436" stroke-width="1.91753" stroke-linecap="round"/>
<path d="M38.6876 53.7029C38.6979 54.1111 38.6402 54.6886 38.6047 55.0965C38.5944 55.2776 38.5839 55.4704 38.5708 55.6656C38.563 55.7551 38.5528 55.8254 38.5269 55.9584" stroke="#6FDFFF" stroke-width="1.91753" stroke-linecap="round"/>
<mask id="mask0_255_15108" style="mask-type:alpha" maskUnits="userSpaceOnUse" x="2" y="2" width="61" height="41">
<path d="M2.92801 28.4288C3.61776 27.159 6.68844 22.5323 7.53836 21.6875C7.92611 20.9446 8.0763 20.7237 8.2135 20.4879C8.74653 19.537 9.52649 18.3994 10.1733 17.2727C10.7605 16.2918 11.4318 14.8608 12.5604 13.8006C14.2541 12.2095 16.5368 9.62139 19.1598 8.16362C25.3902 4.7009 27.6743 3.7236 30.6729 3.15501C32.2515 2.85566 36.5197 1.80866 41.4437 3.20779C45.3053 4.30504 47.148 5.37516 48.6267 6.53675C50.9323 8.34795 53.5252 10.8543 55.0107 12.9064C55.7732 13.9598 57.6076 15.8131 58.6743 17.808C59.6996 19.7255 61.1742 20.5323 61.9448 24.2062C62.7194 27.8992 62.9318 30.7049 61.6428 32.8356C60.0922 35.3988 59.1872 37.2138 55.8442 38.2607C50.4049 39.9642 46.751 41.1249 44.6502 41.2273C43.5668 41.2801 39.7259 41.9482 32.1146 42.2626C27.7529 42.4427 22.4233 42.4667 19.4869 42.3513C16.0163 42.2149 14.4363 42.1885 9.78381 40.7201C7.15875 39.8916 5.76424 39.447 4.98737 38.2098C3.15808 35.2964 1.75734 30.5839 2.92801 28.4288Z" fill="#FF4E4E"/>
</mask>
<g mask="url(#mask0_255_15108)">
<path d="M2.92801 28.4288C3.61776 27.159 6.68844 22.5323 7.53836 21.6875C7.92611 20.9446 8.0763 20.7237 8.2135 20.4879C8.74653 19.537 9.52649 18.3994 10.1733 17.2727C10.7605 16.2918 11.4318 14.8608 12.5604 13.8006C14.2541 12.2095 16.5368 9.62139 19.1598 8.16362C25.3902 4.7009 27.6743 3.7236 30.6729 3.15501C32.2515 2.85566 36.5197 1.80866 41.4437 3.20779C45.3053 4.30504 47.148 5.37516 48.6267 6.53675C50.9323 8.34795 53.5252 10.8543 55.0107 12.9064C55.7732 13.9598 57.6076 15.8131 58.6743 17.808C59.6996 19.7255 61.1742 20.5323 61.9448 24.2062C62.7194 27.8992 62.9318 30.7049 61.6428 32.8356C60.0922 35.3988 59.1872 37.2138 55.8442 38.2607C50.4049 39.9642 46.751 41.1249 44.6502 41.2273C43.5668 41.2801 39.7259 41.9482 32.1146 42.2626C27.7529 42.4427 22.4233 42.4667 19.4869 42.3513C16.0163 42.2149 14.4363 42.1885 9.78381 40.7201C7.15875 39.8916 5.76424 39.447 4.98737 38.2098C3.15808 35.2964 1.75734 30.5839 2.92801 28.4288Z" fill="#FF4E4E"/>
<path d="M59.8605 16.7493C60.4421 16.6469 60.306 16.679 60.3989 16.6525C60.454 16.6369 60.6517 16.596 60.7064 16.5928C60.8134 16.5834 60.7326 16.5526 60.9673 16.549C61.2141 16.5316 61.4359 16.5679 61.661 16.6094C62.0177 16.6751 62.5052 16.8759 62.9768 17.441L62.9842 17.4498C63.3433 17.8803 63.719 18.3304 63.9135 18.953C64.1997 19.8686 64.3691 20.485 64.3723 20.7069C64.3769 21.0346 64.3776 21.3857 64.2777 21.7925C64.127 22.4057 63.8069 23.2316 63.5816 23.991C63.4796 24.3348 63.4586 24.5826 63.2755 24.9104C62.8813 25.6165 62.6172 26.0806 61.6466 26.3507C60.8705 26.5668 60.1502 26.6666 59.562 26.6506C58.9038 26.6327 58.499 26.607 58.2816 26.5969C57.8759 26.5782 57.2686 26.5587 56.7277 26.4337C56.4494 26.3694 56.2227 26.3327 55.9211 26.2173C55.1368 25.9173 54.5594 25.6377 54.2937 25.3712C54.1006 25.1775 53.5571 24.8085 53.2802 24.2446C53.1013 23.8804 52.8577 23.2969 52.802 22.64C52.762 22.1688 52.7372 21.7787 52.9183 21.3083C53.2013 20.5732 53.4188 20.0841 53.5076 19.9043C53.7542 19.4049 53.8549 19.0727 54.5208 18.5127C54.8958 18.1973 55.2497 17.9407 55.7339 17.7353C56.0428 17.6043 56.4801 17.4396 57.2979 17.2498C58.1158 17.0601 59.2789 16.8517 59.8605 16.7493Z" fill="#F7F7F7" stroke="#F7F7F7" stroke-width="0.174776" stroke-linecap="round"/>
<path d="M36.6481 41.6297C37.1853 42.1754 37.5386 42.4897 37.6525 42.5495C37.7655 42.6354 38.0666 42.8543 38.1208 42.9041C38.2393 43.0134 38.4376 43.1848 38.6051 43.3228C38.7633 43.4821 39.0012 43.5853 39.7594 43.8504C40.1073 43.972 40.8173 44.1833 41.3039 44.3051C41.5287 44.3614 42.0134 44.5815 42.6271 44.5722C43.6637 44.5566 44.5182 44.4028 44.9208 44.37C45.1508 44.3513 45.6357 44.2756 46.491 43.9474C47.292 43.64 48.2434 43.0932 48.6283 42.8111C48.7788 42.7007 49.2712 42.304 49.939 41.5592C50.2616 41.1994 50.5682 40.8682 50.7146 40.4987C51.1553 39.3862 51.3368 39.0749 51.3387 38.2503C51.3402 37.5727 51.3268 37.13 51.1716 36.5086C51.0322 35.9504 50.7704 34.9296 50.6034 34.3198C50.4364 33.7101 50.3662 33.5173 50.1602 33.0971C49.9541 32.6769 49.6593 32.0247 49.4013 31.6605C48.842 30.8715 48.5171 30.4902 47.4882 30.1568C46.7208 29.9081 46.2601 29.747 46.0135 29.6681C45.5031 29.5046 44.8175 29.2947 44.1785 29.2236C43.7254 29.1732 43.0521 29.1542 42.2965 29.1982C41.9404 29.2189 41.7792 29.2064 41.5012 29.269C40.9744 29.3876 40.3666 29.5956 39.841 29.8457C39.3704 30.0695 38.6024 30.5069 37.7247 31.118C37.357 31.374 37.1493 31.5424 36.8562 31.8365C36.5631 32.1306 36.1959 32.5379 35.9077 32.9876C35.6196 33.4373 35.4167 33.915 35.2808 34.3533C35.1449 34.7917 35.078 35.179 35.0392 35.7964C35.0005 36.4138 34.9818 37.2363 34.9903 37.6939C35.0004 38.2416 35.0458 38.45 35.0948 38.6507C35.1829 39.012 35.3007 39.5315 35.5704 40.0378C35.8578 40.5774 36.191 41.1654 36.6481 41.6297Z" fill="#F7F7F7" stroke="#F7F7F7" stroke-width="0.238662" stroke-linecap="round"/>
<path d="M20.9345 31.1308C21.0969 30.6471 21.458 29.8413 22.173 29.422C22.888 29.0028 22.8106 28.9907 23.1873 28.8497C23.564 28.7087 23.6612 28.5619 24.1002 28.5091C24.5391 28.4564 24.8029 28.5092 25.3697 28.5783C26.0804 28.6649 26.6871 28.9266 27.0072 29.8025C27.2021 30.3358 27.3951 30.9746 27.1641 31.7662C27.0673 32.098 26.9451 32.3793 26.5991 32.6384C26.365 32.8138 26.1937 33.1455 24.9007 33.5758C24.4171 33.7367 23.0581 34.1181 22.1314 33.6069C21.6523 33.3425 21.1235 32.9853 20.9597 32.4446C20.8593 32.113 20.7348 31.7257 20.9345 31.1308Z" fill="#F7F7F7" stroke="#F7F7F7" stroke-width="0.238662" stroke-linecap="round"/>
<path d="M9.26119 13.7423C8.69299 12.8996 8.36085 12.6186 8.26109 12.4265C8.20032 12.3094 8.02069 11.9743 7.97932 11.9267C7.90406 11.8291 7.84508 11.7128 7.78913 11.5834C7.67346 11.3237 7.71341 11.0726 7.77103 10.7103L7.77318 10.6967C7.88228 10.0104 7.91896 9.64367 8.26109 8.96838C8.49617 8.50437 8.97657 7.67613 9.76275 6.86159C10.3087 6.29601 10.8574 5.83072 11.4777 5.45875C11.964 5.16715 12.4363 4.88951 13.003 4.73593C13.5843 4.57842 14.2902 4.45046 15.8178 4.49115C16.9484 4.52125 18.7634 4.54009 19.769 4.67203C21.26 4.86766 21.7232 4.98528 22.0651 5.38083C22.4211 5.79278 22.8015 6.26306 22.8889 7.82618C22.9393 8.72677 22.9396 8.97995 22.9219 9.90614C22.9042 10.8323 23.0685 11.3831 22.7101 12.138C22.3517 12.8929 22.0708 13.1513 21.586 13.7345C21.1013 14.3178 20.9723 14.387 20.3247 14.81C19.6772 15.2329 19.1692 15.4745 18.7187 15.6477C18.2682 15.8209 17.8869 15.9225 17.2958 16.0189C16.7047 16.1152 15.9275 16.2036 15.1235 16.2281C14.3195 16.2527 13.508 16.2588 13.0492 16.1835C12.1831 16.0412 11.1426 15.6867 10.541 15.1292C10.1244 14.743 9.6564 14.3284 9.26119 13.7423Z" fill="#F7F7F7"/>
</g>
<path d="M30.4399 1.92786C31.98 1.63583 36.5356 0.514192 41.7856 2.00598C45.7727 3.13894 47.7688 4.27502 49.3979 5.55481C51.7584 7.40907 54.4467 9.99653 56.0229 12.174C56.3801 12.6673 56.9469 13.2934 57.6978 14.2159C58.3991 15.0776 59.185 16.1138 59.7759 17.2189C59.9908 17.6207 60.2348 17.975 60.5181 18.3624C60.79 18.7343 61.1297 19.1769 61.4487 19.6613C62.1235 20.6859 62.7483 21.9512 63.1675 23.9493C63.9361 27.6141 64.2822 30.886 62.7114 33.4825C61.9733 34.7026 61.2799 35.9428 60.3325 36.9659C59.3342 38.0441 58.0786 38.8703 56.2173 39.4532C53.507 40.3021 51.2099 41.0253 49.3296 41.548C47.4706 42.0647 45.9139 42.4161 44.7114 42.4747C44.4952 42.4853 44.1055 42.5299 43.4517 42.6075C42.8211 42.6824 41.9931 42.7823 40.9595 42.8898C38.8897 43.1051 36.0007 43.3525 32.1665 43.5109C27.7807 43.692 22.4162 43.7168 19.438 43.5997C15.9056 43.4609 14.2046 43.4252 9.40771 41.9113C8.12625 41.5068 7.02522 41.1607 6.15479 40.7452C5.24267 40.3099 4.48161 39.7539 3.9292 38.8741C2.941 37.3003 2.0813 35.2672 1.61768 33.3253C1.38525 32.3518 1.24405 31.3663 1.24951 30.4493C1.25492 29.545 1.40362 28.6181 1.83057 27.8322C2.20785 27.1377 3.17948 25.6182 4.13818 24.1993C4.62339 23.4812 5.11727 22.7705 5.54736 22.1818C5.89096 21.7114 6.23488 21.2661 6.50928 20.962C6.8604 20.2978 7.02223 20.0504 7.1333 19.8595C7.41646 19.3559 7.7588 18.8118 8.09326 18.2804C8.43846 17.732 8.78184 17.1879 9.09033 16.6505L9.09521 16.6407L9.10107 16.631C9.5992 15.7989 10.4091 14.1077 11.7056 12.8898C13.2657 11.424 15.7502 8.62927 18.5532 7.07141C24.791 3.60464 27.2275 2.53705 30.4399 1.92786Z" stroke="#2D3436" stroke-width="2.49846" stroke-linecap="round"/>
<path d="M37.7852 8.38269C38.571 8.32169 39.683 8.40834 40.2129 8.44617L40.2686 8.45007C41.0872 8.50846 41.8775 8.56491 42.3867 8.71667C42.8613 8.85813 43.3012 8.96631 43.6641 9.08484C44.0283 9.20383 44.3328 9.33762 44.543 9.53992C45.0102 9.98962 45.4361 10.4039 45.6328 10.9159C45.7965 11.3418 45.9474 12.0192 46.0381 12.7079C46.1287 13.3963 46.1601 14.1046 46.083 14.5897C45.9479 15.4406 45.5103 16.199 44.9355 16.9384C44.5381 17.4496 44.1055 18.0156 43.666 18.493C43.2278 18.969 42.7759 19.3657 42.3359 19.5282C41.3045 19.9092 40.1185 20.4806 37.5469 20.7538C36.3504 20.8808 34.6002 21.059 33.6074 21.0546C32.3911 21.0491 31.7529 20.8468 31.2617 20.5214C30.8039 20.2179 29.8537 19.6275 29.5586 18.5594C29.3902 17.9498 29.334 17.2184 29.6133 16.2196C29.8757 15.2811 30.1971 14.2031 30.8477 13.2157C31.0444 12.9172 32.0003 11.8228 33.5146 10.538C34.318 9.85638 34.7901 9.58543 35.2236 9.39539L35.375 9.30359C35.4444 9.26137 35.5286 9.21036 35.6123 9.16003C35.7777 9.06063 35.9493 8.95998 36.0078 8.93347C36.1153 8.8848 36.2244 8.82789 36.3301 8.77429L36.334 8.77136C36.7445 8.60461 37.2419 8.4249 37.7852 8.38269Z" fill="#F7F7F7" stroke="#F7F7F7" stroke-width="0.119331" stroke-linecap="round"/>
<path d="M8.81631 25.7061C9.23918 25.3741 9.88793 24.819 9.91321 24.819C9.99545 24.7647 10.038 24.7303 10.0804 24.696L10.0835 24.6935C10.1269 24.6584 10.1698 24.624 10.2314 24.5824C10.4974 24.428 10.7727 24.2749 11.2001 24.2468C11.5599 24.2231 12.0347 24.1769 12.3282 24.2165C12.6068 24.2541 12.8566 24.2311 13.3261 24.421C14.0319 24.7065 14.62 24.9571 14.9193 25.1469C15.2811 25.3764 15.5441 25.5434 15.648 25.6775C15.9113 26.0173 16.2388 26.4303 16.2972 27.0626C16.3217 27.3268 16.3301 28.0115 16.3165 28.5043C16.3123 28.6566 16.372 29.2672 16.0856 30.042C15.8993 30.5458 15.5394 30.967 15.1198 31.4394C14.4897 32.1486 14.0445 32.4707 13.5236 32.8656C12.8755 33.357 12.576 33.728 11.6861 34.0324C11.2146 34.1937 10.423 34.4407 9.88354 34.5877C9.34406 34.7347 9.06636 34.8011 8.85056 34.8033C8.22833 34.8096 7.85908 34.8289 7.35457 34.4479C6.68603 33.9431 6.38009 33.6901 6.17746 33.1687C6.0094 32.7362 5.8236 32.2519 5.78365 31.6758C5.7309 30.9151 5.723 30.3703 5.80043 30.1307C5.88987 29.8538 6.0245 29.4842 6.49116 28.7661C6.83398 28.2386 7.40026 27.4128 7.83749 26.8323C8.27471 26.2518 8.55864 25.9084 8.81631 25.7061Z" fill="#F7F7F7" stroke="#F7F7F7" stroke-width="0.119331" stroke-linecap="round"/>
</svg>
