<svg width="59" height="59" viewBox="0 0 59 59" fill="none" xmlns="http://www.w3.org/2000/svg">
<path d="M1.00711 7.95949L13.6244 0.306867C14.6173 -0.295981 15.9081 0.0160817 16.5109 1.00901C16.7095 1.34235 16.8159 1.71824 16.8159 2.10832V48.6056C16.8159 49.3432 16.4329 50.0312 15.7946 50.4141L3.18445 57.9533C2.19153 58.549 0.900726 58.2299 0.297878 57.2299C0.0992929 56.9036 0 56.5277 0 56.1447V9.76094C0 9.02333 0.382986 8.34247 1.00711 7.95949ZM43.0575 7.95949L55.6677 0.306867C56.6606 -0.295981 57.9514 0.0160817 58.5542 1.00901C58.7528 1.34235 58.8592 1.71824 58.8592 2.10832V48.6056C58.8592 49.3432 58.4762 50.0312 57.8379 50.4141L45.2278 57.9533C44.2348 58.549 42.944 58.2299 42.3412 57.2299C42.1426 56.9036 42.0433 56.5277 42.0433 56.1447V9.76094C42.0504 9.02333 42.4263 8.34247 43.0575 7.95949ZM24.2132 2.68989L36.8304 10.2432C37.4617 10.6262 37.8517 11.3071 37.8517 12.0447V56.7405C37.8517 57.9036 36.9085 58.8398 35.7453 58.8398C35.3623 58.8398 34.9864 58.7334 34.6602 58.5349L22.0429 50.9177C21.4117 50.5418 21.0217 49.8539 21.0217 49.1162V4.49134C21.0217 3.3282 21.9649 2.39201 23.121 2.39201C23.504 2.39201 23.8799 2.4913 24.2132 2.68989Z" fill="black"/>
</svg>
