<svg width="60" height="60" viewBox="0 0 60 60" fill="none" xmlns="http://www.w3.org/2000/svg">
<path d="M11.2793 18.329C11.2793 23.1901 13.2104 27.8522 16.6477 31.2895C20.0851 34.7269 24.7471 36.6579 29.6083 36.6579C34.4694 36.6579 39.1315 34.7269 42.5688 31.2895C46.0062 27.8522 47.9372 23.1901 47.9372 18.329C47.9372 15.922 47.4631 13.5385 46.542 11.3148C45.6209 9.091 44.2708 7.07043 42.5688 5.36843C40.8668 3.66643 38.8462 2.31633 36.6225 1.39521C34.3987 0.474093 32.0153 0 29.6083 0C27.2013 0 24.8178 0.474093 22.5941 1.39521C20.3703 2.31633 18.3497 3.66643 16.6477 5.36843C14.9457 7.07043 13.5956 9.091 12.6745 11.3148C11.7534 13.5385 11.2793 15.922 11.2793 18.329Z" fill="#D9D9D9"/>
<path d="M45.1175 39.4778H14.0992C6.34464 39.4778 0 45.8224 0 53.577V54.9869C0 57.3837 1.8329 59.2166 4.22976 59.2166H54.9869C57.3838 59.2166 59.2167 57.3837 59.2167 54.9869V53.577C59.2167 45.8224 52.872 39.4778 45.1175 39.4778Z" fill="#D9D9D9"/>
</svg>
