<svg width="121" height="121" viewBox="0 0 121 121" fill="none" xmlns="http://www.w3.org/2000/svg">
<g filter="url(#filter0_d_22_4623)">
<circle cx="60.2258" cy="56.2258" r="51.7258" fill="#9AF490"/>
<circle cx="60.2258" cy="56.2258" r="51.7258" fill="#FF6666"/>
<circle cx="60.2258" cy="56.2258" r="51.7258" stroke="white" stroke-width="9"/>
<path d="M69.0062 59.4965L71.7098 75.1217C71.7098 79.4759 68.183 83.0065 63.825 83.0065H56.9486C52.5906 83.0065 49.0601 79.4759 49.0601 75.1217L51.7636 59.4965" fill="white"/>
<path d="M60.6821 59.4965V83.0065H63.8245C68.1825 83.0065 71.7093 79.4759 71.7093 75.1217L69.0057 59.4965H60.6821Z" fill="white"/>
<path d="M88.354 55.6841C88.354 71.2184 75.7573 63.5033 60.2277 63.5033C44.6949 63.5028 32.0977 71.2141 32.0977 55.6841C32.0977 40.1494 44.6949 29.4452 60.2277 29.4452C75.7573 29.4452 88.354 40.1494 88.354 55.6841Z" fill="white"/>
<path d="M88.0509 51.8212C87.9698 51.2544 87.9032 50.6801 87.7869 50.1297C87.6946 49.6886 87.56 49.2676 87.4452 48.8373C87.3308 48.405 87.2365 47.9657 87.102 47.5462C86.9412 47.0497 86.7406 46.5767 86.5516 46.0966C86.4208 45.7661 86.3116 45.4225 86.1677 45.0995C85.9328 44.5679 85.6562 44.062 85.3848 43.5524C85.254 43.3049 85.1405 43.0447 85.0027 42.8023C84.6797 42.2449 84.3197 41.7128 83.9577 41.1826C83.8391 41.0111 83.7374 40.8301 83.6179 40.6623C83.202 40.088 82.7496 39.5414 82.2865 39.0041C82.1979 38.9005 82.12 38.788 82.0277 38.6844C81.514 38.1116 80.9743 37.5626 80.4103 37.0393C80.355 36.9878 80.3067 36.9306 80.2495 36.8786C79.6378 36.3171 79 35.7847 78.3382 35.2832C78.3237 35.2724 78.3087 35.2593 78.2941 35.2481C73.5133 31.6458 67.3813 29.5591 60.6821 29.4691V63.5145C65.5399 63.5591 70.0994 64.3307 74.0622 64.8806C74.4424 64.9322 74.817 64.9847 75.1883 65.0325L75.7218 65.0986C76.2094 65.1577 76.6857 65.213 77.1493 65.258C77.2712 65.2726 77.3893 65.2801 77.5079 65.2904C77.9027 65.3279 78.289 65.3537 78.6673 65.3757C78.7817 65.3837 78.8979 65.3907 79.0109 65.3944C79.4516 65.4165 79.8801 65.424 80.2959 65.4165C80.4061 65.4165 80.512 65.4127 80.6185 65.409C80.9935 65.3982 81.3592 65.3757 81.7098 65.3387C81.7689 65.3312 81.8317 65.3312 81.8894 65.3241C82.2633 65.2782 82.6343 65.2117 83.0009 65.1249C83.0909 65.1061 83.1837 65.0803 83.2719 65.0578C83.6197 64.9682 83.9611 64.8548 84.2934 64.7184C84.3178 64.7072 84.3398 64.6922 84.3633 64.6814C84.6601 64.5491 84.9454 64.3921 85.216 64.2121C85.2845 64.1681 85.3529 64.1235 85.4195 64.0757C85.6981 63.8758 85.9578 63.6507 86.1953 63.4034C86.2357 63.3589 86.2708 63.3111 86.3116 63.2628C86.5179 63.0303 86.712 62.7715 86.8887 62.4879C86.9318 62.425 86.9759 62.3618 87.0148 62.2919C87.2051 61.9666 87.3767 61.6046 87.5281 61.2132C87.5596 61.1283 87.5896 61.036 87.6186 60.9511C87.7499 60.578 87.8662 60.179 87.9623 59.7472C87.9768 59.6802 87.9951 59.6216 88.0082 59.5513C88.1099 59.0679 88.1835 58.5359 88.2388 57.9742C88.3142 57.2144 88.3525 56.4514 88.3537 55.6879C88.3537 54.7221 88.3045 53.7752 88.2098 52.8479C88.1732 52.4967 88.0991 52.1648 88.0509 51.8212Z" fill="white"/>
</g>
<defs>
<filter id="filter0_d_22_4623" x="0" y="0" width="120.452" height="120.452" filterUnits="userSpaceOnUse" color-interpolation-filters="sRGB">
<feFlood flood-opacity="0" result="BackgroundImageFix"/>
<feColorMatrix in="SourceAlpha" type="matrix" values="0 0 0 0 0 0 0 0 0 0 0 0 0 0 0 0 0 0 127 0" result="hardAlpha"/>
<feOffset dy="4"/>
<feGaussianBlur stdDeviation="2"/>
<feComposite in2="hardAlpha" operator="out"/>
<feColorMatrix type="matrix" values="0 0 0 0 0 0 0 0 0 0 0 0 0 0 0 0 0 0 0.25 0"/>
<feBlend mode="normal" in2="BackgroundImageFix" result="effect1_dropShadow_22_4623"/>
<feBlend mode="normal" in="SourceGraphic" in2="effect1_dropShadow_22_4623" result="shape"/>
</filter>
</defs>
</svg>
