<svg width="74" height="70" viewBox="0 0 74 70" fill="none" xmlns="http://www.w3.org/2000/svg">
<path d="M48.1448 39.2005L51.6715 59.5828C51.6715 65.2627 47.0709 69.8682 41.3861 69.8682H32.4162C26.7314 69.8682 22.1259 65.2627 22.1259 59.5828L25.6526 39.2005" fill="#FFC0E9"/>
<path d="M37.2869 39.2005V69.8682H41.386C47.0708 69.8682 51.6714 65.2628 51.6714 59.5829L48.1447 39.2005H37.2869Z" fill="#FFC0E9"/>
<path d="M73.3838 34.2274C73.3838 54.4911 56.952 44.4272 36.6944 44.4272C16.4325 44.4266 0 54.4856 0 34.2274C0 13.9631 16.4325 0 36.6944 0C56.952 0 73.3838 13.9631 73.3838 34.2274Z" fill="#FF6ECB"/>
<path d="M72.9888 29.1884C72.883 28.4491 72.7962 27.6999 72.6445 26.982C72.5241 26.4065 72.3485 25.8574 72.1987 25.296C72.0495 24.7322 71.9266 24.1592 71.7511 23.6118C71.5413 22.9642 71.2796 22.3472 71.0331 21.721C70.8625 21.2899 70.72 20.8416 70.5323 20.4203C70.2259 19.7268 69.8651 19.0669 69.511 18.4022C69.3404 18.0793 69.1924 17.7399 69.0126 17.4238C68.5913 16.6966 68.1216 16.0026 67.6495 15.3109C67.4948 15.0871 67.3621 14.851 67.2062 14.6321C66.6638 13.883 66.0736 13.1699 65.4694 12.4691C65.3538 12.334 65.2523 12.1872 65.1319 12.0521C64.4618 11.3048 63.7578 10.5888 63.0221 9.9062C62.9499 9.83893 62.8869 9.76432 62.8123 9.69644C62.0144 8.96401 61.1824 8.26956 60.3191 7.6154C60.3002 7.60133 60.2806 7.58421 60.2616 7.56953C54.0252 2.87052 46.0264 0.148595 37.2876 0.0311813V44.4418C43.6243 44.4999 49.572 45.5065 54.7413 46.2238C55.2373 46.2911 55.7259 46.3596 56.2102 46.422L56.9061 46.5082C57.5421 46.5853 58.1635 46.6574 58.7683 46.7161C58.9273 46.7351 59.0814 46.7449 59.2361 46.7583C59.751 46.8072 60.2549 46.8409 60.7484 46.8696C60.8976 46.88 61.0493 46.8892 61.1967 46.8941C61.7715 46.9228 62.3304 46.9326 62.8729 46.9228C63.0166 46.9228 63.1548 46.9179 63.2936 46.913C63.7828 46.899 64.2598 46.8696 64.7172 46.8213C64.7943 46.8115 64.8762 46.8115 64.9515 46.8023C65.4392 46.7424 65.9232 46.6557 66.4014 46.5424C66.5188 46.518 66.6399 46.4844 66.7549 46.455C67.2086 46.338 67.6539 46.1901 68.0874 46.0122C68.1192 45.9976 68.1479 45.978 68.1785 45.9639C68.5658 45.7913 68.9379 45.5866 69.2909 45.3518C69.3802 45.2943 69.4695 45.2362 69.5563 45.1738C69.9197 44.913 70.2585 44.6195 70.5684 44.2969C70.621 44.2388 70.6668 44.1764 70.72 44.1134C70.9891 43.8101 71.2423 43.4726 71.4728 43.1026C71.5291 43.0206 71.5866 42.9381 71.6373 42.847C71.8856 42.4226 72.1094 41.9505 72.307 41.4398C72.3479 41.3291 72.3871 41.2087 72.425 41.098C72.5962 40.6112 72.7479 40.0908 72.8732 39.5276C72.8922 39.4401 72.9161 39.3637 72.9332 39.2719C73.0659 38.6415 73.1619 37.9474 73.234 37.2148C73.3323 36.2236 73.3823 35.2283 73.3839 34.2323C73.3839 32.9726 73.3197 31.7373 73.1961 30.5277C73.1484 30.0696 73.0518 29.6367 72.9888 29.1884Z" fill="#FF6ECB"/>
</svg>
