<svg width="19" height="28" viewBox="0 0 19 28" fill="none" xmlns="http://www.w3.org/2000/svg">
<path d="M10.7808 5.6478C12.3357 6.05839 13.934 5.14901 14.3507 3.61664C14.7673 2.08427 13.8445 0.509175 12.2896 0.0985864C10.7347 -0.312002 9.13644 0.597378 8.71981 2.12975C8.30312 3.66209 9.22588 5.23722 10.7808 5.6478Z" fill="#888888"/>
<path d="M17.7632 13.4018L12.3315 7.35245C12.0469 6.94945 11.6232 6.63907 11.1071 6.50283L9.91597 6.18829C9.80571 6.15917 9.69504 6.1391 9.58481 6.1274C9.12077 5.92863 8.56427 5.97355 8.12938 6.29391L0.584152 11.8559C-0.0598408 12.331 -0.191508 13.2311 0.290266 13.8661C0.576344 14.2434 1.01468 14.4422 1.45872 14.4422C1.76188 14.4422 2.06858 14.3489 2.33045 14.1561L6.27748 11.2466L5.37246 14.5752C5.32906 14.675 5.29605 14.781 5.27582 14.8924L4.24896 20.5571L0.368544 24.8578C-0.166587 25.4507 -0.112514 26.3585 0.488793 26.8855C0.766315 27.1289 1.11216 27.2485 1.45657 27.2485C1.85864 27.2485 2.25855 27.0858 2.54606 26.7667L6.69974 22.1631C6.87907 21.965 6.9986 21.722 7.04558 21.4614L7.73811 17.6422L10.8321 21.7244L12.3357 26.2586C12.5371 26.8642 13.1078 27.2488 13.7212 27.2488C13.8706 27.2488 14.0236 27.2257 14.1738 27.1773C14.9388 26.9308 15.3565 26.1198 15.1067 25.3659L13.5284 20.6076C13.4785 20.4593 13.4052 20.3198 13.3106 20.1946L10.5851 16.5982L12.0376 11.3601L15.5799 15.3052C15.8681 15.626 16.2695 15.7898 16.6723 15.7898C17.0152 15.7898 17.3597 15.6709 17.6372 15.4294C18.24 14.9033 18.2962 13.9958 17.7632 13.4018Z" fill="#888888"/>
</svg>
