<svg width="29" height="38" viewBox="0 0 29 38" fill="none" xmlns="http://www.w3.org/2000/svg">
<path d="M26.5379 28.5189C25.7434 27.9866 24.6687 27.5264 23.3435 27.1509C22.1052 26.8 20.6715 26.5284 19.1181 26.3447C19.4873 25.7948 19.8653 25.2135 20.2442 24.6057C21.7202 22.2377 22.899 19.9641 23.7477 17.8479C24.8346 15.1377 25.3858 12.6629 25.3858 10.4922C25.3858 9.06495 25.0857 7.68061 24.4941 6.37761C23.9257 5.12604 23.114 4.00376 22.0813 3.04197C21.0551 2.08612 19.8616 1.33623 18.5337 0.813171C17.164 0.273621 15.7105 0 14.2136 0C12.7166 0 11.2631 0.273621 9.89334 0.813171C8.56561 1.33623 7.37201 2.08612 6.34578 3.04197C5.31318 4.00376 4.50141 5.12604 3.93308 6.37761C3.34138 7.68061 3.04137 9.06495 3.04137 10.4922C3.04137 12.6629 3.59248 15.1377 4.67944 17.8479C5.52815 19.9641 6.70691 22.2378 8.18297 24.6057C8.56191 25.2136 8.94 25.7951 9.30925 26.345C7.75698 26.5287 6.32432 26.8002 5.08682 27.1509C3.76164 27.5264 2.68687 27.9866 1.8924 28.5189C0.32832 29.5667 0 30.7825 0 31.6178C0 32.4532 0.32832 33.669 1.89236 34.7168C2.68683 35.2491 3.76159 35.7094 5.08682 36.0849C7.55353 36.7838 10.7953 37.1688 14.2152 37.1688C17.635 37.1688 20.8768 36.7838 23.3435 36.0849C24.6687 35.7094 25.7435 35.2491 26.538 34.7168C28.102 33.669 28.4303 32.4532 28.4303 31.6178C28.4303 30.7825 28.102 29.5667 26.5379 28.5189ZM14.2136 5.58301C16.9621 5.58301 19.1909 7.81172 19.1909 10.5603C19.1909 13.3088 16.9621 15.5375 14.2136 15.5375C11.4651 15.5375 9.23631 13.3088 9.23631 10.5603C9.23627 7.81172 11.465 5.58301 14.2136 5.58301ZM14.2151 35.0438C7.53793 35.0438 2.12501 33.51 2.12501 31.6179C2.12501 30.072 5.73874 28.7655 10.7029 28.3391C12.1208 30.29 13.1807 31.5246 13.248 31.6026L14.2136 32.7223L15.1792 31.6026C15.2464 31.5246 16.3064 30.2899 17.7244 28.3388C22.6901 28.765 26.3053 30.0717 26.3053 31.6179C26.3053 33.51 20.8923 35.0438 14.2151 35.0438Z" fill="#FF6863"/>
</svg>
